<?xml version="1.0" encoding="utf-8" ?>
<svg xmlns="http://www.w3.org/2000/svg" xmlns:xlink="http://www.w3.org/1999/xlink" width="400" height="68">
	<path fill="#FEFEFE" d="M68.1389 0L86.5928 0C86.6672 0.181228 86.9504 0.704504 86.9521 0.875C86.9569 1.36503 86.5809 2.20373 86.4491 2.71272C85.9342 4.70201 85.4942 6.62299 84.7105 8.53156L66.1523 8.54986L67.7075 2.41514C67.9183 1.66224 68.469 0.83124 68.1577 0.0459943L68.1389 0Z"/>
	<path fill="#FEFEFE" d="M65.7566 11.0026C68.2327 11.4418 70.9388 11.23 73.4556 11.2429C76.9817 11.2609 80.6707 11.4858 84.1689 11.0425L76.1444 41.0533L74.1395 48.5511C73.7913 49.7919 73.6166 51.0286 72.9035 52.125L71.6682 52.3775L54.2587 52.3718L61.9995 23.7982C63.1129 19.6991 63.8692 14.7724 65.7566 11.0026Z"/>
	<path fill="#E9A21C" d="M284.941 10.6249L292.278 10.6597C291.653 13.9177 290.804 17.4773 289.521 20.5353L289.431 20.504C286.397 19.4686 279.765 18.9205 276.852 20.365C275.072 21.2476 273.535 22.9887 272.604 24.7292C271.027 27.6799 270.363 31.2559 269.52 34.48C267.982 40.3681 266.6 46.5334 264.652 52.2854C263.785 52.6562 262.164 52.4515 261.205 52.453L252.437 52.4487L245.61 52.55L252.777 25.9617C254.066 21.0984 255.074 15.8944 256.883 11.2187L268.861 11.2097C270.686 11.2171 272.833 11.0013 274.625 11.3017C275.152 11.3901 275.665 11.6618 276.09 11.9795C276.165 12.0355 276.908 11.8506 277.042 11.8242L284.941 10.6249Z"/>
	<path fill="#FEFEFE" d="M101.07 0L119.873 0C119.958 0.222338 120.19 0.652764 120.21 0.875C120.246 1.28591 119.818 2.36059 119.708 2.7979C118.994 5.63198 118.291 8.49993 117.218 11.22L126.5 11.2509L123.415 22.4773L114.445 22.4125L106.25 52.436L87.4537 52.3973L93.1179 31.4105L94.7877 24.9514C95.0285 24.079 95.5052 23.2228 95.6156 22.3296L86.3221 22.4474L89.5397 11.386C90.5699 10.8595 96.6753 11.2932 98.2996 11.3086C98.3705 11.2355 98.4475 11.1503 98.4913 11.0576C99.5815 8.75018 100.068 5.60384 100.735 3.10625C100.903 2.47718 101.371 1.52758 101.401 0.933934C101.409 0.770654 101.134 0.179917 101.07 0Z"/>
	<path fill="#E9A21C" d="M399.724 27.4732L393.028 52.3702C390.451 52.7878 387.374 52.4684 384.75 52.4623C381.658 52.4551 378.037 52.782 374.998 52.2994C374.361 52.1982 374.236 51.8171 373.875 51.3248C371.677 52.0363 369.31 52.3775 367.01 52.5238C360.71 52.9245 351.567 52.817 346.626 48.4453C345.369 47.3329 344.577 45.7708 344.48 44.0911C344.36 42.0462 345.004 39.9642 345.885 38.1328C351.441 26.5922 368.836 29.7993 379.116 26.4955C379.497 26.3731 380.889 26.0126 381.097 25.7651C381.529 25.2492 381.724 23.3276 381.662 22.6517C381.592 21.8831 381.35 21.1354 380.739 20.6291C379.525 19.6241 377.711 19.6198 376.217 19.7717C372.855 20.1136 371.531 22.3535 369.557 24.7654L350.75 24.9623L350.414 24.625C350.442 24.3548 350.511 24.0862 350.629 23.8412C353.219 18.5036 359.276 14.767 364.657 12.8852C367.843 11.7708 371.271 11.2763 374.617 10.9725C380.749 10.4157 387.88 10.4487 393.533 13.1852C396.528 14.6354 398.623 16.8888 399.709 20.0265C400.254 21.3305 400.352 25.9604 399.822 27.2614L399.724 27.4732ZM377.788 35.125C374.098 36.5349 367.911 35.4371 365.993 39.7173C365.727 40.3092 365.351 41.2089 365.608 41.85C365.832 42.4072 366.33 42.9569 366.793 43.3228C369.141 43.9333 372.84 44.324 375.036 43.0236C377.408 41.6188 377.955 38.0911 378.67 35.625L378.541 35.1951L377.788 35.125Z"/>
	<path fill="#FEFEFE" d="M0 -0L14.418 0L36.5886 0L28.4045 30.2827C27.4279 33.8328 26.7657 37.7321 25.3289 41.1165L51.4606 41.0674L48.1499 52.3504L16.8347 52.3842C11.341 52.3841 5.4354 52.8125 0 52.1801L0 51.2794L0 -0ZM0 0L0 51.2794C0.70771 50.5189 0.797408 49.4785 1.04676 48.5019L2.66054 42.3068L7.50942 24.4529C8.67806 20.0564 9.72662 15.5778 11.1704 11.2636C17.5458 11.2714 24.2221 10.7642 30.5313 11.6396C25.7134 7.21248 19.2707 4.43454 14.418 0L0 -0Z"/>
	<path fill="#E9A21C" d="M219.669 10.8743L223.071 10.6595C229.64 10.4049 239.09 11.3127 244.091 15.9963C246.255 18.0237 247.42 20.9339 247.515 23.8607C247.583 25.9316 247.112 27.9421 246.664 29.9509C245.47 35.2924 243.662 40.035 239.867 44.0787C234.255 50.0587 224.797 52.2556 216.937 52.511C209.37 52.8597 200.024 52.9355 193.828 47.9313C191.685 46.2005 190.308 43.4603 190.024 40.7492C189.721 37.8633 190.332 35.0002 191.065 32.2239C192.159 28.0744 193.44 24.3107 196.188 20.9241C202.061 13.6841 210.862 11.792 219.669 10.8743ZM221.098 19.6248C219.028 20.1575 217.841 20.8968 216.714 22.8078C214.743 26.1488 214.023 31.1192 213.06 34.8898C212.58 36.7673 211.412 39.647 211.914 41.5728C212.108 42.32 212.536 42.7767 213.196 43.1549C213.861 43.5363 214.786 43.7942 215.558 43.6813C217.284 43.5255 218.713 43.148 219.868 41.7724C222.181 39.0167 222.95 34.0389 223.864 30.6394C224.535 28.1446 225.771 24.8338 225.526 22.2401C225.456 21.4966 225.234 20.9382 224.646 20.4514C223.633 19.6128 222.354 19.571 221.098 19.6248Z"/>
	<path fill="#E9A21C" d="M299.474 68L299.221 67.6024C294.766 66.8285 289.544 65.6354 286.756 61.6881C285.629 60.0918 284.877 57.699 285.209 55.7513C285.244 55.547 285.474 55.3958 285.625 55.2532L306.857 55.1478C307.19 56.4935 307.406 57.8563 308.678 58.6328C309.927 59.3947 311.217 59.3224 312.587 58.9864C314.308 58.564 315.582 57.2006 316.464 55.7399C317.312 54.3362 317.824 52.5628 318.368 51.0163C311.225 53.2571 302.464 53.7129 295.656 50.1644C292.848 48.701 290.84 46.3217 289.889 43.3147C289.188 41.0999 289.476 38.7244 289.857 36.4829C290.582 32.2123 291.85 27.6311 293.861 23.7778C296.652 18.4288 301.565 14.4016 307.323 12.6024C312.421 11.0096 318.145 10.2469 323.444 11.0446L326.671 11.6706C326.927 11.7302 327.655 11.9918 327.881 11.9588C328.524 11.8644 329.149 11.418 329.875 11.3382C335.756 10.692 341.903 11.4781 347.829 11.1114L340.617 37.7769C339.114 43.2117 338.145 49.3531 335.547 54.3808C333.589 58.1675 330.842 61.4099 327.188 63.665C325.955 64.4258 324.607 65.1718 323.247 65.6757C321.887 66.18 320.512 66.6396 319.103 66.9874C318.07 67.2423 316.501 67.3514 315.675 68L299.474 68ZM319.884 19.8749C317.889 20.6611 316.607 22.4571 315.777 24.3635C314.749 26.7244 314.25 29.5 313.59 31.9958C312.912 34.563 311.954 37.2974 311.666 39.9299C311.591 40.6136 311.638 41.4186 311.896 42.0632C312.147 42.6886 312.69 43.1665 313.302 43.4267C314.058 43.7479 315.487 43.963 316.259 43.6136L316.307 43.5898C318.07 43.326 319.158 42.3693 320.201 40.963C322.068 38.4474 322.685 33.9137 323.497 30.8742C324.18 28.3223 325.669 24.5997 325.287 21.9976C325.179 21.2561 324.734 20.7465 324.144 20.315C323.051 19.5146 321.475 19.6152 320.204 19.8198L319.884 19.8749Z"/>
	<path fill="#E9A21C" d="M135.093 0L157.397 0L171.933 0L194.456 0L194.424 0.253681C194.575 1.13702 194.13 2.1297 193.892 2.9833L192.508 8.125L186.816 29.2028L182.507 45.3248C181.868 47.6643 181.379 50.0175 180.591 52.316C179.895 52.7172 160.955 52.4877 157.913 52.5619L150.924 24.3491C149.859 26.9654 149.38 29.8425 148.66 32.5682L143.24 52.4308L120.554 52.5282L127.428 27.0627C128.799 21.8436 129.875 16.2791 131.813 11.2458L148.294 11.2152C149.224 11.2563 150.181 11.4881 151.134 11.5433L135.29 0.297421L135.093 0ZM157.397 0L157.32 0.290744L164.733 27.9445L171.968 0.223861L171.933 0L157.397 0Z"/>
</svg>
